<?xml version="1.0" encoding="iso-8859-1"?>
<!-- Generator: Adobe Illustrator 19.0.0, SVG Export Plug-In . SVG Version: 6.00 Build 0)  -->
<svg version="1.1" id="Layer_1" xmlns="http://www.w3.org/2000/svg" xmlns:xlink="http://www.w3.org/1999/xlink" x="0px" y="0px"
	 viewBox="0 0 392.598 392.598" style="enable-background:new 0 0 392.598 392.598;" xml:space="preserve">
<g>
	<path style="fill:#56ACE0;" d="M21.786,276.59v60.186c0,7.111,5.818,12.8,12.929,12.8h31.418v-85.915H34.715
		C27.604,263.661,21.786,269.479,21.786,276.59z"/>
	<path style="fill:#56ACE0;" d="M357.818,263.661H326.4v85.915h31.418c7.111,0,12.929-5.818,12.929-12.8V276.59
		C370.747,269.479,364.929,263.661,357.818,263.661z"/>
</g>
<polygon style="fill:#FFC10D;" points="165.56,325.204 220.832,278.982 165.56,232.695 "/>
<g>
	<path style="fill:#194F82;" d="M359.499,241.939v-56.566c0-90.57-73.632-164.202-164.202-164.202S30.966,94.869,30.966,185.374
		v56.63C13.576,243.879,0,258.618,0,276.525v60.186c0,19.071,15.515,34.715,34.715,34.715h42.343
		c6.012,0,10.925-4.848,10.925-10.925V252.8c0-6.012-4.848-10.925-10.925-10.925H52.881v-56.501
		c0-78.481,63.935-142.416,142.416-142.416s142.416,63.935,142.416,142.416v56.501h-22.174c-6.012,0-10.925,4.848-10.925,10.925
		v107.701c0,6.012,4.849,10.925,10.925,10.925h42.343c19.071,0,34.715-15.515,34.715-34.715v-60.186
		C392.533,257.972,377.859,242.844,359.499,241.939z M66.133,349.576H34.715c-7.111,0-12.929-5.818-12.929-12.8V276.59
		c0-7.111,5.818-12.8,12.929-12.8h31.418C66.133,263.79,66.133,349.576,66.133,349.576z M370.747,336.711
		c0,7.111-5.818,12.8-12.929,12.8H326.4v-85.85h31.418c7.111,0,12.929,5.818,12.929,12.8V336.711z"/>
	<path style="fill:#194F82;" d="M161.616,201.018c-7.111-5.947-17.907-0.905-17.907,8.339v139.119
		c0,9.244,10.796,14.287,17.907,8.339l83.135-69.56c5.172-4.331,5.172-12.347,0-16.679L161.616,201.018z M165.56,325.204v-92.509
		l55.273,46.222L165.56,325.204z"/>
</g>
<g>
</g>
<g>
</g>
<g>
</g>
<g>
</g>
<g>
</g>
<g>
</g>
<g>
</g>
<g>
</g>
<g>
</g>
<g>
</g>
<g>
</g>
<g>
</g>
<g>
</g>
<g>
</g>
<g>
</g>
</svg>
